<svg width="59" height="184" viewBox="0 0 233 734" fill="none" xmlns="http://www.w3.org/2000/svg">
<path d="M2 207H231V701C231 718.121 217.121 732 200 732H33C15.8792 732 2 718.121 2 701V207Z" fill="#FF0000" stroke="black" stroke-width="2"/>
<path d="M19 171H218V138H19V171Z" fill="#2E2E2E"/>
<path fill-rule="evenodd" clip-rule="evenodd" d="M218 33C218 15.3269 203.673 1 186 1H51C33.3269 1 19 15.3269 19 33V138H218V33ZM183 51C183 63.1503 173.15 73 161 73H72C59.8497 73 50 63.1503 50 51C50 38.8497 59.8497 29 72 29H161C173.15 29 183 38.8497 183 51Z" fill="#2E2E2E"/>
<path d="M232 205L218 171H19L1 205H232Z" fill="#2E2E2E"/>
<path d="M1 205L19 171M1 205H232M1 205V701C1 718.673 15.3269 733 33 733H200C217.673 733 232 718.673 232 701V205M232 205L218 171M218 171H19M218 171V138M19 171V138M19 138V33C19 15.3269 33.3269 1 51 1H186C203.673 1 218 15.3269 218 33V138M19 138H218M183 51C183 38.8497 173.15 29 161 29H72C59.8497 29 50 38.8497 50 51C50 63.1503 59.8497 73 72 73H161C173.15 73 183 63.1503 183 51Z" stroke="black" stroke-width="2"/>
<path fill-rule="evenodd" clip-rule="evenodd" d="M117 527L159.868 601.25C164.396 608.771 167 617.581 167 627C167 654.614 144.614 677 117 677C89.3858 677 67 654.614 67 627C67 617.581 69.6043 608.771 74.132 601.249L117 527ZM162.869 625.613C163.014 623.621 161.381 622 159.384 622C157.386 622 155.783 623.622 155.615 625.612C155.149 631.101 153.627 636.46 151.12 641.389C148.612 646.319 145.178 650.705 141.016 654.314C139.507 655.622 139.14 657.873 140.316 659.487C141.492 661.101 143.764 661.466 145.289 660.176C150.364 655.884 154.542 650.614 157.566 644.668C160.591 638.722 162.389 632.243 162.869 625.613Z" fill="#2E2E2E"/>
</svg>
