<svg width="32" height="48" viewBox="0 0 128 192" fill="none" xmlns="http://www.w3.org/2000/svg">
<path fill-rule="evenodd" clip-rule="evenodd" d="M64 0L118.871 95.0395C124.667 104.667 128 115.944 128 128C128 163.346 99.3462 192 64 192C28.6538 192 0 163.346 0 128C0 115.944 3.33348 104.667 9.12902 95.0393L64 0ZM110.75 151.99C111.026 149.798 109.209 148 107 148C104.791 148 103.034 149.803 102.667 151.982C102.368 153.762 101.867 155.508 101.173 157.184C99.967 160.096 98.1992 162.742 95.9706 164.971C93.742 167.199 91.0962 168.967 88.1844 170.173C86.5081 170.867 84.7624 171.368 82.9815 171.667C80.803 172.034 79 173.791 79 176C79 178.209 80.7977 180.026 82.9896 179.75C85.8211 179.395 88.5983 178.661 91.2459 177.564C95.1283 175.956 98.6559 173.599 101.627 170.627C104.599 167.656 106.956 164.128 108.564 160.246C109.661 157.598 110.395 154.821 110.75 151.99Z" fill="#46A2BD"/>
</svg>
