<svg width="2210" height="1581" viewBox="0 0 2210 1581" fill="none" xmlns="http://www.w3.org/2000/svg">
<path fill-rule="evenodd" clip-rule="evenodd" d="M1288 0L1342.87 95.0396C1348.67 104.667 1352 115.944 1352 128C1352 163.346 1323.35 192 1288 192C1252.65 192 1224 163.346 1224 128C1224 115.944 1227.33 104.667 1233.13 95.0393L1288 0ZM1334.75 151.99C1335.03 149.798 1333.21 148 1331 148C1328.79 148 1327.03 149.803 1326.67 151.981C1326.37 153.762 1325.87 155.508 1325.17 157.184C1323.97 160.096 1322.2 162.742 1319.97 164.97C1317.74 167.199 1315.1 168.967 1312.18 170.173C1310.51 170.867 1308.76 171.368 1306.98 171.667C1304.8 172.034 1303 173.791 1303 176C1303 178.209 1304.8 180.026 1306.99 179.75C1309.82 179.395 1312.6 178.661 1315.25 177.564C1319.13 175.956 1322.66 173.599 1325.63 170.627C1328.6 167.656 1330.96 164.128 1332.56 160.246C1333.66 157.598 1334.39 154.821 1334.75 151.99ZM1112 192L1166.87 287.04C1172.67 296.667 1176 307.944 1176 320C1176 355.346 1147.35 384 1112 384C1076.65 384 1048 355.346 1048 320C1048 307.944 1051.33 296.667 1057.13 287.039L1112 192ZM1158.75 343.99C1159.03 341.798 1157.21 340 1155 340C1152.79 340 1151.03 341.803 1150.67 343.981C1150.37 345.762 1149.87 347.508 1149.17 349.184C1147.97 352.096 1146.2 354.742 1143.97 356.97C1141.74 359.199 1139.1 360.967 1136.18 362.173C1134.51 362.867 1132.76 363.368 1130.98 363.667C1128.8 364.034 1127 365.791 1127 368C1127 370.209 1128.8 372.026 1130.99 371.75C1133.82 371.395 1136.6 370.661 1139.25 369.564C1143.13 367.956 1146.66 365.599 1149.63 362.627C1152.6 359.656 1154.96 356.128 1156.56 352.246C1157.66 349.598 1158.39 346.821 1158.75 343.99ZM1342.87 479.04L1288 384L1233.13 479.039C1227.33 488.667 1224 499.944 1224 512C1224 547.346 1252.65 576 1288 576C1323.35 576 1352 547.346 1352 512C1352 499.944 1348.67 488.667 1342.87 479.04ZM1331 532C1333.21 532 1335.03 533.798 1334.75 535.99C1334.39 538.821 1333.66 541.598 1332.56 544.246C1330.96 548.128 1328.6 551.656 1325.63 554.627C1322.66 557.599 1319.13 559.956 1315.25 561.564C1312.6 562.661 1309.82 563.395 1306.99 563.75C1304.8 564.026 1303 562.209 1303 560C1303 557.791 1304.8 556.034 1306.98 555.667C1308.76 555.368 1310.51 554.867 1312.18 554.173C1315.1 552.967 1317.74 551.199 1319.97 548.97C1322.2 546.742 1323.97 544.096 1325.17 541.184C1325.87 539.508 1326.37 537.762 1326.67 535.981C1327.03 533.803 1328.79 532 1331 532ZM1166.87 671.04L1112 576L1057.13 671.039C1051.33 680.667 1048 691.944 1048 704C1048 739.346 1076.65 768 1112 768C1147.35 768 1176 739.346 1176 704C1176 691.944 1172.67 680.667 1166.87 671.04ZM1155 724C1157.21 724 1159.03 725.798 1158.75 727.99C1158.39 730.821 1157.66 733.598 1156.56 736.246C1154.96 740.128 1152.6 743.656 1149.63 746.627C1146.66 749.599 1143.13 751.956 1139.25 753.564C1136.6 754.661 1133.82 755.395 1130.99 755.75C1128.8 756.026 1127 754.209 1127 752C1127 749.791 1128.8 748.034 1130.98 747.667C1132.76 747.368 1134.51 746.867 1136.18 746.173C1139.1 744.967 1141.74 743.199 1143.97 740.97C1146.2 738.742 1147.97 736.096 1149.17 733.184C1149.87 731.508 1150.37 729.762 1150.67 727.981C1151.03 725.803 1152.79 724 1155 724ZM1288 748L1342.87 843.04C1348.67 852.667 1352 863.944 1352 876C1352 911.346 1323.35 940 1288 940C1252.65 940 1224 911.346 1224 876C1224 863.944 1227.33 852.667 1233.13 843.039L1288 748ZM1334.75 899.99C1335.03 897.798 1333.21 896 1331 896C1328.79 896 1327.03 897.803 1326.67 899.981C1326.37 901.762 1325.87 903.508 1325.17 905.184C1323.97 908.096 1322.2 910.742 1319.97 912.97C1317.74 915.199 1315.1 916.967 1312.18 918.173C1310.51 918.867 1308.76 919.368 1306.98 919.667C1304.8 920.034 1303 921.791 1303 924C1303 926.209 1304.8 928.026 1306.99 927.75C1309.82 927.395 1312.6 926.661 1315.25 925.564C1319.13 923.956 1322.66 921.599 1325.63 918.627C1328.6 915.656 1330.96 912.128 1332.56 908.246C1333.66 905.598 1334.39 902.821 1334.75 899.99ZM64 940L118.871 1035.04C124.667 1044.67 128 1055.94 128 1068C128 1103.35 99.3462 1132 64 1132C28.6538 1132 0 1103.35 0 1068C0 1055.94 3.33348 1044.67 9.12903 1035.04L64 940ZM110.75 1091.99C111.026 1089.8 109.209 1088 107 1088C104.791 1088 103.034 1089.8 102.667 1091.98C102.368 1093.76 101.867 1095.51 101.173 1097.18C99.967 1100.1 98.1992 1102.74 95.9706 1104.97C93.742 1107.2 91.0962 1108.97 88.1844 1110.17C86.5081 1110.87 84.7625 1111.37 82.9815 1111.67C80.803 1112.03 79 1113.79 79 1116C79 1118.21 80.7977 1120.03 82.9896 1119.75C85.8211 1119.39 88.5983 1118.66 91.2459 1117.56C95.1283 1115.96 98.6559 1113.6 101.627 1110.63C104.599 1107.66 106.956 1104.13 108.564 1100.25C109.661 1097.6 110.395 1094.82 110.75 1091.99ZM1166.87 1035.04L1112 940L1057.13 1035.04C1051.33 1044.67 1048 1055.94 1048 1068C1048 1103.35 1076.65 1132 1112 1132C1147.35 1132 1176 1103.35 1176 1068C1176 1055.94 1172.67 1044.67 1166.87 1035.04ZM1155 1088C1157.21 1088 1159.03 1089.8 1158.75 1091.99C1158.39 1094.82 1157.66 1097.6 1156.56 1100.25C1154.96 1104.13 1152.6 1107.66 1149.63 1110.63C1146.66 1113.6 1143.13 1115.96 1139.25 1117.56C1136.6 1118.66 1133.82 1119.39 1130.99 1119.75C1128.8 1120.03 1127 1118.21 1127 1116C1127 1113.79 1128.8 1112.03 1130.98 1111.67C1132.76 1111.37 1134.51 1110.87 1136.18 1110.17C1139.1 1108.97 1141.74 1107.2 1143.97 1104.97C1146.2 1102.74 1147.97 1100.1 1149.17 1097.18C1149.87 1095.51 1150.37 1093.76 1150.67 1091.98C1151.03 1089.8 1152.79 1088 1155 1088ZM642.871 1196.04L588 1101L533.129 1196.04C527.333 1205.67 524 1216.94 524 1229C524 1264.35 552.654 1293 588 1293C623.346 1293 652 1264.35 652 1229C652 1216.94 648.667 1205.67 642.871 1196.04ZM631 1249C633.209 1249 635.026 1250.8 634.75 1252.99C634.395 1255.82 633.661 1258.6 632.564 1261.25C630.956 1265.13 628.599 1268.66 625.627 1271.63C622.656 1274.6 619.128 1276.96 615.246 1278.56C612.598 1279.66 609.821 1280.39 606.99 1280.75C604.798 1281.03 603 1279.21 603 1277C603 1274.79 604.803 1273.03 606.982 1272.67C608.762 1272.37 610.508 1271.87 612.184 1271.17C615.096 1269.97 617.742 1268.2 619.971 1265.97C622.199 1263.74 623.967 1261.1 625.173 1258.18C625.867 1256.51 626.368 1254.76 626.667 1252.98C627.034 1250.8 628.791 1249 631 1249ZM1514.87 1035.04L1460 940L1405.13 1035.04C1399.33 1044.67 1396 1055.94 1396 1068C1396 1103.35 1424.65 1132 1460 1132C1495.35 1132 1524 1103.35 1524 1068C1524 1055.94 1520.67 1044.67 1514.87 1035.04ZM1503 1088C1505.21 1088 1507.03 1089.8 1506.75 1091.99C1506.39 1094.82 1505.66 1097.6 1504.56 1100.25C1502.96 1104.13 1500.6 1107.66 1497.63 1110.63C1494.66 1113.6 1491.13 1115.96 1487.25 1117.56C1484.6 1118.66 1481.82 1119.39 1478.99 1119.75C1476.8 1120.03 1475 1118.21 1475 1116C1475 1113.79 1476.8 1112.03 1478.98 1111.67C1480.76 1111.37 1482.51 1110.87 1484.18 1110.17C1487.1 1108.97 1489.74 1107.2 1491.97 1104.97C1494.2 1102.74 1495.97 1100.1 1497.17 1097.18C1497.87 1095.51 1498.37 1093.76 1498.67 1091.98C1499.03 1089.8 1500.79 1088 1503 1088ZM936 1101L990.871 1196.04C996.667 1205.67 1000 1216.94 1000 1229C1000 1264.35 971.346 1293 936 1293C900.654 1293 872 1264.35 872 1229C872 1216.94 875.333 1205.67 881.129 1196.04L936 1101ZM982.75 1252.99C983.026 1250.8 981.209 1249 979 1249C976.791 1249 975.034 1250.8 974.667 1252.98C974.368 1254.76 973.867 1256.51 973.173 1258.18C971.967 1261.1 970.199 1263.74 967.971 1265.97C965.742 1268.2 963.096 1269.97 960.184 1271.17C958.508 1271.87 956.762 1272.37 954.982 1272.67C952.803 1273.03 951 1274.79 951 1277C951 1279.21 952.798 1281.03 954.99 1280.75C957.821 1280.39 960.598 1279.66 963.246 1278.56C967.128 1276.96 970.656 1274.6 973.627 1271.63C976.599 1268.66 978.956 1265.13 980.564 1261.25C981.661 1258.6 982.395 1255.82 982.75 1252.99ZM466.871 1035.04L412 940L357.129 1035.04C351.333 1044.67 348 1055.94 348 1068C348 1103.35 376.654 1132 412 1132C447.346 1132 476 1103.35 476 1068C476 1055.94 472.667 1044.67 466.871 1035.04ZM455 1088C457.209 1088 459.026 1089.8 458.75 1091.99C458.395 1094.82 457.661 1097.6 456.564 1100.25C454.956 1104.13 452.599 1107.66 449.627 1110.63C446.656 1113.6 443.128 1115.96 439.246 1117.56C436.598 1118.66 433.821 1119.39 430.99 1119.75C428.798 1120.03 427 1118.21 427 1116C427 1113.79 428.803 1112.03 430.982 1111.67C432.762 1111.37 434.508 1110.87 436.184 1110.17C439.096 1108.97 441.742 1107.2 443.971 1104.97C446.199 1102.74 447.967 1100.1 449.173 1097.18C449.867 1095.51 450.368 1093.76 450.667 1091.98C451.034 1089.8 452.791 1088 455 1088ZM818.871 1004.04L764 909L709.129 1004.04C703.333 1013.67 700 1024.94 700 1037C700 1072.35 728.654 1101 764 1101C799.346 1101 828 1072.35 828 1037C828 1024.94 824.667 1013.67 818.871 1004.04ZM807 1057C809.209 1057 811.026 1058.8 810.75 1060.99C810.395 1063.82 809.661 1066.6 808.564 1069.25C806.956 1073.13 804.599 1076.66 801.627 1079.63C798.656 1082.6 795.128 1084.96 791.246 1086.56C788.598 1087.66 785.821 1088.39 782.99 1088.75C780.798 1089.03 779 1087.21 779 1085C779 1082.79 780.803 1081.03 782.982 1080.67C784.762 1080.37 786.508 1079.87 788.184 1079.17C791.096 1077.97 793.742 1076.2 795.971 1073.97C798.199 1071.74 799.967 1069.1 801.173 1066.18C801.867 1064.51 802.368 1062.76 802.667 1060.98C803.034 1058.8 804.791 1057 807 1057ZM240 748L294.871 843.04C300.667 852.667 304 863.944 304 876C304 911.346 275.346 940 240 940C204.654 940 176 911.346 176 876C176 863.944 179.333 852.667 185.129 843.039L240 748ZM286.75 899.99C287.026 897.798 285.209 896 283 896C280.791 896 279.034 897.803 278.667 899.981C278.368 901.762 277.867 903.508 277.173 905.184C275.967 908.096 274.199 910.742 271.971 912.97C269.742 915.199 267.096 916.967 264.184 918.173C262.508 918.867 260.762 919.368 258.982 919.667C256.803 920.034 255 921.791 255 924C255 926.209 256.798 928.026 258.99 927.75C261.821 927.395 264.598 926.661 267.246 925.564C271.128 923.956 274.656 921.599 277.627 918.627C280.599 915.656 282.956 912.128 284.564 908.246C285.661 905.598 286.395 902.821 286.75 899.99ZM588 737L642.871 832.04C648.667 841.667 652 852.944 652 865C652 900.346 623.346 929 588 929C552.654 929 524 900.346 524 865C524 852.944 527.333 841.667 533.129 832.039L588 737ZM634.75 888.99C635.026 886.798 633.209 885 631 885C628.791 885 627.034 886.803 626.667 888.981C626.368 890.762 625.867 892.508 625.173 894.184C623.967 897.096 622.199 899.742 619.971 901.97C617.742 904.199 615.096 905.967 612.184 907.173C610.508 907.867 608.762 908.368 606.982 908.667C604.803 909.034 603 910.791 603 913C603 915.209 604.798 917.026 606.99 916.75C609.821 916.395 612.598 915.661 615.246 914.564C619.128 912.956 622.656 910.599 625.627 907.627C628.599 904.656 630.956 901.128 632.564 897.246C633.661 894.598 634.395 891.821 634.75 888.99ZM118.871 671.04L64 576L9.12903 671.039C3.33348 680.667 0 691.944 0 704C0 739.346 28.6538 768 64 768C99.3462 768 128 739.346 128 704C128 691.944 124.667 680.667 118.871 671.04ZM107 724C109.209 724 111.026 725.798 110.75 727.99C110.395 730.821 109.661 733.598 108.564 736.246C106.956 740.128 104.599 743.656 101.627 746.627C98.6559 749.599 95.1283 751.956 91.2459 753.564C88.5983 754.661 85.8211 755.395 82.9896 755.75C80.7977 756.026 79 754.209 79 752C79 749.791 80.803 748.034 82.9815 747.667C84.7625 747.368 86.5081 746.867 88.1844 746.173C91.0962 744.967 93.742 743.199 95.9706 740.97C98.1992 738.742 99.967 736.096 101.173 733.184C101.867 731.508 102.368 729.762 102.667 727.981C103.034 725.803 104.791 724 107 724ZM1460 576L1514.87 671.04C1520.67 680.667 1524 691.944 1524 704C1524 739.346 1495.35 768 1460 768C1424.65 768 1396 739.346 1396 704C1396 691.944 1399.33 680.667 1405.13 671.039L1460 576ZM1506.75 727.99C1507.03 725.798 1505.21 724 1503 724C1500.79 724 1499.03 725.803 1498.67 727.981C1498.37 729.762 1497.87 731.508 1497.17 733.184C1495.97 736.096 1494.2 738.742 1491.97 740.97C1489.74 743.199 1487.1 744.967 1484.18 746.173C1482.51 746.867 1480.76 747.368 1478.98 747.667C1476.8 748.034 1475 749.791 1475 752C1475 754.209 1476.8 756.026 1478.99 755.75C1481.82 755.395 1484.6 754.661 1487.25 753.564C1491.13 751.956 1494.66 749.599 1497.63 746.627C1500.6 743.656 1502.96 740.128 1504.56 736.246C1505.66 733.598 1506.39 730.821 1506.75 727.99ZM990.871 832.04L936 737L881.129 832.039C875.333 841.667 872 852.944 872 865C872 900.346 900.654 929 936 929C971.346 929 1000 900.346 1000 865C1000 852.944 996.667 841.667 990.871 832.04ZM979 885C981.209 885 983.026 886.798 982.75 888.99C982.395 891.821 981.661 894.598 980.564 897.246C978.956 901.128 976.599 904.656 973.627 907.627C970.656 910.599 967.128 912.956 963.246 914.564C960.598 915.661 957.821 916.395 954.99 916.75C952.798 917.026 951 915.209 951 913C951 910.791 952.803 909.034 954.982 908.667C956.762 908.368 958.508 907.867 960.184 907.173C963.096 905.967 965.742 904.199 967.971 901.97C970.199 899.742 971.967 897.096 973.173 894.184C973.867 892.508 974.368 890.762 974.667 888.981C975.034 886.803 976.791 885 979 885ZM412 576L466.871 671.04C472.667 680.667 476 691.944 476 704C476 739.346 447.346 768 412 768C376.654 768 348 739.346 348 704C348 691.944 351.333 680.667 357.129 671.039L412 576ZM458.75 727.99C459.026 725.798 457.209 724 455 724C452.791 724 451.034 725.803 450.667 727.981C450.368 729.762 449.867 731.508 449.173 733.184C447.967 736.096 446.199 738.742 443.971 740.97C441.742 743.199 439.096 744.967 436.184 746.173C434.508 746.867 432.762 747.368 430.982 747.667C428.803 748.034 427 749.791 427 752C427 754.209 428.798 756.026 430.99 755.75C433.821 755.395 436.598 754.661 439.246 753.564C443.128 751.956 446.656 749.599 449.627 746.627C452.599 743.656 454.956 740.128 456.564 736.246C457.661 733.598 458.395 730.821 458.75 727.99ZM764 545L818.871 640.04C824.667 649.667 828 660.944 828 673C828 708.346 799.346 737 764 737C728.654 737 700 708.346 700 673C700 660.944 703.333 649.667 709.129 640.039L764 545ZM810.75 696.99C811.026 694.798 809.209 693 807 693C804.791 693 803.034 694.803 802.667 696.981C802.368 698.762 801.867 700.508 801.173 702.184C799.967 705.096 798.199 707.742 795.971 709.97C793.742 712.199 791.096 713.967 788.184 715.173C786.508 715.867 784.762 716.368 782.982 716.667C780.803 717.034 779 718.791 779 721C779 723.209 780.798 725.026 782.99 724.75C785.821 724.395 788.598 723.661 791.246 722.564C795.128 720.956 798.656 718.599 801.627 715.627C804.599 712.656 806.956 709.128 808.564 705.246C809.661 702.598 810.395 699.821 810.75 696.99ZM294.871 479.04L240 384L185.129 479.039C179.333 488.667 176 499.944 176 512C176 547.346 204.654 576 240 576C275.346 576 304 547.346 304 512C304 499.944 300.667 488.667 294.871 479.04ZM283 532C285.209 532 287.026 533.798 286.75 535.99C286.395 538.821 285.661 541.598 284.564 544.246C282.956 548.128 280.599 551.656 277.627 554.627C274.656 557.599 271.128 559.956 267.246 561.564C264.598 562.661 261.821 563.395 258.99 563.75C256.798 564.026 255 562.209 255 560C255 557.791 256.803 556.034 258.982 555.667C260.762 555.368 262.508 554.867 264.184 554.173C267.096 552.967 269.742 551.199 271.971 548.97C274.199 546.742 275.967 544.096 277.173 541.184C277.867 539.508 278.368 537.762 278.667 535.981C279.034 533.803 280.791 532 283 532ZM642.871 448.04L588 353L533.129 448.039C527.333 457.667 524 468.944 524 481C524 516.346 552.654 545 588 545C623.346 545 652 516.346 652 481C652 468.944 648.667 457.667 642.871 448.04ZM631 501C633.209 501 635.026 502.798 634.75 504.99C634.395 507.821 633.661 510.598 632.564 513.246C630.956 517.128 628.599 520.656 625.627 523.627C622.656 526.599 619.128 528.956 615.246 530.564C612.598 531.661 609.821 532.395 606.99 532.75C604.798 533.026 603 531.209 603 529C603 526.791 604.803 525.034 606.982 524.667C608.762 524.368 610.508 523.867 612.184 523.173C615.096 521.967 617.742 520.199 619.971 517.97C622.199 515.742 623.967 513.096 625.173 510.184C625.867 508.508 626.368 506.762 626.667 504.981C627.034 502.803 628.791 501 631 501ZM64 192L118.871 287.04C124.667 296.667 128 307.944 128 320C128 355.346 99.3462 384 64 384C28.6538 384 0 355.346 0 320C0 307.944 3.33348 296.667 9.12903 287.039L64 192ZM110.75 343.99C111.026 341.798 109.209 340 107 340C104.791 340 103.034 341.803 102.667 343.981C102.368 345.762 101.867 347.508 101.173 349.184C99.967 352.096 98.1992 354.742 95.9706 356.97C93.742 359.199 91.0962 360.967 88.1844 362.173C86.5081 362.867 84.7625 363.368 82.9815 363.667C80.803 364.034 79 365.791 79 368C79 370.209 80.7977 372.026 82.9896 371.75C85.8211 371.395 88.5983 370.661 91.2459 369.564C95.1283 367.956 98.6559 365.599 101.627 362.627C104.599 359.656 106.956 356.128 108.564 352.246C109.661 349.598 110.395 346.821 110.75 343.99ZM1514.87 287.04L1460 192L1405.13 287.039C1399.33 296.667 1396 307.944 1396 320C1396 355.346 1424.65 384 1460 384C1495.35 384 1524 355.346 1524 320C1524 307.944 1520.67 296.667 1514.87 287.04ZM1503 340C1505.21 340 1507.03 341.798 1506.75 343.99C1506.39 346.821 1505.66 349.598 1504.56 352.246C1502.96 356.128 1500.6 359.656 1497.63 362.627C1494.66 365.599 1491.13 367.956 1487.25 369.564C1484.6 370.661 1481.82 371.395 1478.99 371.75C1476.8 372.026 1475 370.209 1475 368C1475 365.791 1476.8 364.034 1478.98 363.667C1480.76 363.368 1482.51 362.867 1484.18 362.173C1487.1 360.967 1489.74 359.199 1491.97 356.97C1494.2 354.742 1495.97 352.096 1497.17 349.184C1497.87 347.508 1498.37 345.762 1498.67 343.981C1499.03 341.803 1500.79 340 1503 340ZM936 353L990.871 448.04C996.667 457.667 1000 468.944 1000 481C1000 516.346 971.346 545 936 545C900.654 545 872 516.346 872 481C872 468.944 875.333 457.667 881.129 448.039L936 353ZM982.75 504.99C983.026 502.798 981.209 501 979 501C976.791 501 975.034 502.803 974.667 504.981C974.368 506.762 973.867 508.508 973.173 510.184C971.967 513.096 970.199 515.742 967.971 517.97C965.742 520.199 963.096 521.967 960.184 523.173C958.508 523.867 956.762 524.368 954.982 524.667C952.803 525.034 951 526.791 951 529C951 531.209 952.798 533.026 954.99 532.75C957.821 532.395 960.598 531.661 963.246 530.564C967.128 528.956 970.656 526.599 973.627 523.627C976.599 520.656 978.956 517.128 980.564 513.246C981.661 510.598 982.395 507.821 982.75 504.99ZM466.871 287.04L412 192L357.129 287.039C351.333 296.667 348 307.944 348 320C348 355.346 376.654 384 412 384C447.346 384 476 355.346 476 320C476 307.944 472.667 296.667 466.871 287.04ZM455 340C457.209 340 459.026 341.798 458.75 343.99C458.395 346.821 457.661 349.598 456.564 352.246C454.956 356.128 452.599 359.656 449.627 362.627C446.656 365.599 443.128 367.956 439.246 369.564C436.598 370.661 433.821 371.395 430.99 371.75C428.798 372.026 427 370.209 427 368C427 365.791 428.803 364.034 430.982 363.667C432.762 363.368 434.508 362.867 436.184 362.173C439.096 360.967 441.742 359.199 443.971 356.97C446.199 354.742 447.967 352.096 449.173 349.184C449.867 347.508 450.368 345.762 450.667 343.981C451.034 341.803 452.791 340 455 340ZM818.871 256.04L764 161L709.129 256.039C703.333 265.667 700 276.944 700 289C700 324.346 728.654 353 764 353C799.346 353 828 324.346 828 289C828 276.944 824.667 265.667 818.871 256.04ZM807 309C809.209 309 811.026 310.798 810.75 312.99C810.395 315.821 809.661 318.598 808.564 321.246C806.956 325.128 804.599 328.656 801.627 331.627C798.656 334.599 795.128 336.956 791.246 338.564C788.598 339.661 785.821 340.395 782.99 340.75C780.798 341.026 779 339.209 779 337C779 334.791 780.803 333.034 782.982 332.667C784.762 332.368 786.508 331.867 788.184 331.173C791.096 329.967 793.742 328.199 795.971 325.97C798.199 323.742 799.967 321.096 801.173 318.184C801.867 316.508 802.368 314.762 802.667 312.981C803.034 310.803 804.791 309 807 309ZM240 0L294.871 95.0396C300.667 104.667 304 115.944 304 128C304 163.346 275.346 192 240 192C204.654 192 176 163.346 176 128C176 115.944 179.333 104.667 185.129 95.0393L240 0ZM286.75 151.99C287.026 149.798 285.209 148 283 148C280.791 148 279.034 149.803 278.667 151.981C278.368 153.762 277.867 155.508 277.173 157.184C275.967 160.096 274.199 162.742 271.971 164.97C269.742 167.199 267.096 168.967 264.184 170.173C262.508 170.867 260.762 171.368 258.982 171.667C256.803 172.034 255 173.791 255 176C255 178.209 256.798 180.026 258.99 179.75C261.821 179.395 264.598 178.661 267.246 177.564C271.128 175.956 274.656 173.599 277.627 170.627C280.599 167.656 282.956 164.128 284.564 160.246C285.661 157.598 286.395 154.821 286.75 151.99ZM1342.87 1227.04L1288 1132L1233.13 1227.04C1227.33 1236.67 1224 1247.94 1224 1260C1224 1295.35 1252.65 1324 1288 1324C1323.35 1324 1352 1295.35 1352 1260C1352 1247.94 1348.67 1236.67 1342.87 1227.04ZM1331 1280C1333.21 1280 1335.03 1281.8 1334.75 1283.99C1334.39 1286.82 1333.66 1289.6 1332.56 1292.25C1330.96 1296.13 1328.6 1299.66 1325.63 1302.63C1322.66 1305.6 1319.13 1307.96 1315.25 1309.56C1312.6 1310.66 1309.82 1311.39 1306.99 1311.75C1304.8 1312.03 1303 1310.21 1303 1308C1303 1305.79 1304.8 1304.03 1306.98 1303.67C1308.76 1303.37 1310.51 1302.87 1312.18 1302.17C1315.1 1300.97 1317.74 1299.2 1319.97 1296.97C1322.2 1294.74 1323.97 1292.1 1325.17 1289.18C1325.87 1287.51 1326.37 1285.76 1326.67 1283.98C1327.03 1281.8 1328.79 1280 1331 1280ZM764 1293L818.871 1388.04C824.667 1397.67 828 1408.94 828 1421C828 1456.35 799.346 1485 764 1485C728.654 1485 700 1456.35 700 1421C700 1408.94 703.333 1397.67 709.129 1388.04L764 1293ZM810.75 1444.99C811.026 1442.8 809.209 1441 807 1441C804.791 1441 803.034 1442.8 802.667 1444.98C802.368 1446.76 801.867 1448.51 801.173 1450.18C799.967 1453.1 798.199 1455.74 795.971 1457.97C793.742 1460.2 791.096 1461.97 788.184 1463.17C786.508 1463.87 784.762 1464.37 782.982 1464.67C780.803 1465.03 779 1466.79 779 1469C779 1471.21 780.798 1473.03 782.99 1472.75C785.821 1472.39 788.598 1471.66 791.246 1470.56C795.128 1468.96 798.656 1466.6 801.627 1463.63C804.599 1460.66 806.956 1457.13 808.564 1453.25C809.661 1450.6 810.395 1447.82 810.75 1444.99ZM294.871 1227.04L240 1132L185.129 1227.04C179.333 1236.67 176 1247.94 176 1260C176 1295.35 204.654 1324 240 1324C275.346 1324 304 1295.35 304 1260C304 1247.94 300.667 1236.67 294.871 1227.04ZM283 1280C285.209 1280 287.026 1281.8 286.75 1283.99C286.395 1286.82 285.661 1289.6 284.564 1292.25C282.956 1296.13 280.599 1299.66 277.627 1302.63C274.656 1305.6 271.128 1307.96 267.246 1309.56C264.598 1310.66 261.821 1311.39 258.99 1311.75C256.798 1312.03 255 1310.21 255 1308C255 1305.79 256.803 1304.03 258.982 1303.67C260.762 1303.37 262.508 1302.87 264.184 1302.17C267.096 1300.97 269.742 1299.2 271.971 1296.97C274.199 1294.74 275.967 1292.1 277.173 1289.18C277.867 1287.51 278.368 1285.76 278.667 1283.98C279.034 1281.8 280.791 1280 283 1280ZM1460 1228L1514.87 1323.04C1520.67 1332.67 1524 1343.94 1524 1356C1524 1391.35 1495.35 1420 1460 1420C1424.65 1420 1396 1391.35 1396 1356C1396 1343.94 1399.33 1332.67 1405.13 1323.04L1460 1228ZM1506.75 1379.99C1507.03 1377.8 1505.21 1376 1503 1376C1500.79 1376 1499.03 1377.8 1498.67 1379.98C1498.37 1381.76 1497.87 1383.51 1497.17 1385.18C1495.97 1388.1 1494.2 1390.74 1491.97 1392.97C1489.74 1395.2 1487.1 1396.97 1484.18 1398.17C1482.51 1398.87 1480.76 1399.37 1478.98 1399.67C1476.8 1400.03 1475 1401.79 1475 1404C1475 1406.21 1476.8 1408.03 1478.99 1407.75C1481.82 1407.39 1484.6 1406.66 1487.25 1405.56C1491.13 1403.96 1494.66 1401.6 1497.63 1398.63C1500.6 1395.66 1502.96 1392.13 1504.56 1388.25C1505.66 1385.6 1506.39 1382.82 1506.75 1379.99ZM990.871 1484.04L936 1389L881.129 1484.04C875.333 1493.67 872 1504.94 872 1517C872 1552.35 900.654 1581 936 1581C971.346 1581 1000 1552.35 1000 1517C1000 1504.94 996.667 1493.67 990.871 1484.04ZM979 1537C981.209 1537 983.026 1538.8 982.75 1540.99C982.395 1543.82 981.661 1546.6 980.564 1549.25C978.956 1553.13 976.599 1556.66 973.627 1559.63C970.656 1562.6 967.128 1564.96 963.246 1566.56C960.598 1567.66 957.821 1568.39 954.99 1568.75C952.798 1569.03 951 1567.21 951 1565C951 1562.79 952.803 1561.03 954.982 1560.67C956.762 1560.37 958.508 1559.87 960.184 1559.17C963.096 1557.97 965.742 1556.2 967.971 1553.97C970.199 1551.74 971.967 1549.1 973.173 1546.18C973.867 1544.51 974.368 1542.76 974.667 1540.98C975.034 1538.8 976.791 1537 979 1537ZM412 1228L466.871 1323.04C472.667 1332.67 476 1343.94 476 1356C476 1391.35 447.346 1420 412 1420C376.654 1420 348 1391.35 348 1356C348 1343.94 351.333 1332.67 357.129 1323.04L412 1228ZM458.75 1379.99C459.026 1377.8 457.209 1376 455 1376C452.791 1376 451.034 1377.8 450.667 1379.98C450.368 1381.76 449.867 1383.51 449.173 1385.18C447.967 1388.1 446.199 1390.74 443.971 1392.97C441.742 1395.2 439.096 1396.97 436.184 1398.17C434.508 1398.87 432.762 1399.37 430.982 1399.67C428.803 1400.03 427 1401.79 427 1404C427 1406.21 428.798 1408.03 430.99 1407.75C433.821 1407.39 436.598 1406.66 439.246 1405.56C443.128 1403.96 446.656 1401.6 449.627 1398.63C452.599 1395.66 454.956 1392.13 456.564 1388.25C457.661 1385.6 458.395 1382.82 458.75 1379.99ZM1166.87 1323.04L1112 1228L1057.13 1323.04C1051.33 1332.67 1048 1343.94 1048 1356C1048 1391.35 1076.65 1420 1112 1420C1147.35 1420 1176 1391.35 1176 1356C1176 1343.94 1172.67 1332.67 1166.87 1323.04ZM1155 1376C1157.21 1376 1159.03 1377.8 1158.75 1379.99C1158.39 1382.82 1157.66 1385.6 1156.56 1388.25C1154.96 1392.13 1152.6 1395.66 1149.63 1398.63C1146.66 1401.6 1143.13 1403.96 1139.25 1405.56C1136.6 1406.66 1133.82 1407.39 1130.99 1407.75C1128.8 1408.03 1127 1406.21 1127 1404C1127 1401.79 1128.8 1400.03 1130.98 1399.67C1132.76 1399.37 1134.51 1398.87 1136.18 1398.17C1139.1 1396.97 1141.74 1395.2 1143.97 1392.97C1146.2 1390.74 1147.97 1388.1 1149.17 1385.18C1149.87 1383.51 1150.37 1381.76 1150.67 1379.98C1151.03 1377.8 1152.79 1376 1155 1376ZM588 1389L642.871 1484.04C648.667 1493.67 652 1504.94 652 1517C652 1552.35 623.346 1581 588 1581C552.654 1581 524 1552.35 524 1517C524 1504.94 527.333 1493.67 533.129 1484.04L588 1389ZM634.75 1540.99C635.026 1538.8 633.209 1537 631 1537C628.791 1537 627.034 1538.8 626.667 1540.98C626.368 1542.76 625.867 1544.51 625.173 1546.18C623.967 1549.1 622.199 1551.74 619.971 1553.97C617.742 1556.2 615.096 1557.97 612.184 1559.17C610.508 1559.87 608.762 1560.37 606.982 1560.67C604.803 1561.03 603 1562.79 603 1565C603 1567.21 604.798 1569.03 606.99 1568.75C609.821 1568.39 612.598 1567.66 615.246 1566.56C619.128 1564.96 622.656 1562.6 625.627 1559.63C628.599 1556.66 630.956 1553.13 632.564 1549.25C633.661 1546.6 634.395 1543.82 634.75 1540.99ZM118.871 1323.04L64 1228L9.12903 1323.04C3.33348 1332.67 0 1343.94 0 1356C0 1391.35 28.6538 1420 64 1420C99.3462 1420 128 1391.35 128 1356C128 1343.94 124.667 1332.67 118.871 1323.04ZM107 1376C109.209 1376 111.026 1377.8 110.75 1379.99C110.395 1382.82 109.661 1385.6 108.564 1388.25C106.956 1392.13 104.599 1395.66 101.627 1398.63C98.6559 1401.6 95.1283 1403.96 91.2459 1405.56C88.5983 1406.66 85.8211 1407.39 82.9896 1407.75C80.7977 1408.03 79 1406.21 79 1404C79 1401.79 80.803 1400.03 82.9815 1399.67C84.7625 1399.37 86.5081 1398.87 88.1844 1398.17C91.0962 1396.97 93.742 1395.2 95.9706 1392.97C98.1992 1390.74 99.967 1388.1 101.173 1385.18C101.867 1383.51 102.368 1381.76 102.667 1379.98C103.034 1377.8 104.791 1376 107 1376ZM1636 1101L1690.87 1196.04C1696.67 1205.67 1700 1216.94 1700 1229C1700 1264.35 1671.35 1293 1636 1293C1600.65 1293 1572 1264.35 1572 1229C1572 1216.94 1575.33 1205.67 1581.13 1196.04L1636 1101ZM1682.75 1252.99C1683.03 1250.8 1681.21 1249 1679 1249C1676.79 1249 1675.03 1250.8 1674.67 1252.98C1674.37 1254.76 1673.87 1256.51 1673.17 1258.18C1671.97 1261.1 1670.2 1263.74 1667.97 1265.97C1665.74 1268.2 1663.1 1269.97 1660.18 1271.17C1658.51 1271.87 1656.76 1272.37 1654.98 1272.67C1652.8 1273.03 1651 1274.79 1651 1277C1651 1279.21 1652.8 1281.03 1654.99 1280.75C1657.82 1280.39 1660.6 1279.66 1663.25 1278.56C1667.13 1276.96 1670.66 1274.6 1673.63 1271.63C1676.6 1268.66 1678.96 1265.13 1680.56 1261.25C1681.66 1258.6 1682.39 1255.82 1682.75 1252.99ZM2038.87 1196.04L1984 1101L1929.13 1196.04C1923.33 1205.67 1920 1216.94 1920 1229C1920 1264.35 1948.65 1293 1984 1293C2019.35 1293 2048 1264.35 2048 1229C2048 1216.94 2044.67 1205.67 2038.87 1196.04ZM2027 1249C2029.21 1249 2031.03 1250.8 2030.75 1252.99C2030.39 1255.82 2029.66 1258.6 2028.56 1261.25C2026.96 1265.13 2024.6 1268.66 2021.63 1271.63C2018.66 1274.6 2015.13 1276.96 2011.25 1278.56C2008.6 1279.66 2005.82 1280.39 2002.99 1280.75C2000.8 1281.03 1999 1279.21 1999 1277C1999 1274.79 2000.8 1273.03 2002.98 1272.67C2004.76 1272.37 2006.51 1271.87 2008.18 1271.17C2011.1 1269.97 2013.74 1268.2 2015.97 1265.97C2018.2 1263.74 2019.97 1261.1 2021.17 1258.18C2021.87 1256.51 2022.37 1254.76 2022.67 1252.98C2023.03 1250.8 2024.79 1249 2027 1249ZM1812 909L1866.87 1004.04C1872.67 1013.67 1876 1024.94 1876 1037C1876 1072.35 1847.35 1101 1812 1101C1776.65 1101 1748 1072.35 1748 1037C1748 1024.94 1751.33 1013.67 1757.13 1004.04L1812 909ZM1858.75 1060.99C1859.03 1058.8 1857.21 1057 1855 1057C1852.79 1057 1851.03 1058.8 1850.67 1060.98C1850.37 1062.76 1849.87 1064.51 1849.17 1066.18C1847.97 1069.1 1846.2 1071.74 1843.97 1073.97C1841.74 1076.2 1839.1 1077.97 1836.18 1079.17C1834.51 1079.87 1832.76 1080.37 1830.98 1080.67C1828.8 1081.03 1827 1082.79 1827 1085C1827 1087.21 1828.8 1089.03 1830.99 1088.75C1833.82 1088.39 1836.6 1087.66 1839.25 1086.56C1843.13 1084.96 1846.66 1082.6 1849.63 1079.63C1852.6 1076.66 1854.96 1073.13 1856.56 1069.25C1857.66 1066.6 1858.39 1063.82 1858.75 1060.99ZM1690.87 832.04L1636 737L1581.13 832.039C1575.33 841.667 1572 852.944 1572 865C1572 900.346 1600.65 929 1636 929C1671.35 929 1700 900.346 1700 865C1700 852.944 1696.67 841.667 1690.87 832.04ZM1679 885C1681.21 885 1683.03 886.798 1682.75 888.99C1682.39 891.821 1681.66 894.598 1680.56 897.246C1678.96 901.128 1676.6 904.656 1673.63 907.627C1670.66 910.599 1667.13 912.956 1663.25 914.564C1660.6 915.661 1657.82 916.395 1654.99 916.75C1652.8 917.026 1651 915.209 1651 913C1651 910.791 1652.8 909.034 1654.98 908.667C1656.76 908.368 1658.51 907.867 1660.18 907.173C1663.1 905.967 1665.74 904.199 1667.97 901.97C1670.2 899.742 1671.97 897.096 1673.17 894.184C1673.87 892.508 1674.37 890.762 1674.67 888.981C1675.03 886.803 1676.79 885 1679 885ZM1984 737L2038.87 832.04C2044.67 841.667 2048 852.944 2048 865C2048 900.346 2019.35 929 1984 929C1948.65 929 1920 900.346 1920 865C1920 852.944 1923.33 841.667 1929.13 832.039L1984 737ZM2030.75 888.99C2031.03 886.798 2029.21 885 2027 885C2024.79 885 2023.03 886.803 2022.67 888.981C2022.37 890.762 2021.87 892.508 2021.17 894.184C2019.97 897.096 2018.2 899.742 2015.97 901.97C2013.74 904.199 2011.1 905.967 2008.18 907.173C2006.51 907.867 2004.76 908.368 2002.98 908.667C2000.8 909.034 1999 910.791 1999 913C1999 915.209 2000.8 917.026 2002.99 916.75C2005.82 916.395 2008.6 915.661 2011.25 914.564C2015.13 912.956 2018.66 910.599 2021.63 907.627C2024.6 904.656 2026.96 901.128 2028.56 897.246C2029.66 894.598 2030.39 891.821 2030.75 888.99ZM1866.87 640.04L1812 545L1757.13 640.039C1751.33 649.667 1748 660.944 1748 673C1748 708.346 1776.65 737 1812 737C1847.35 737 1876 708.346 1876 673C1876 660.944 1872.67 649.667 1866.87 640.04ZM1855 693C1857.21 693 1859.03 694.798 1858.75 696.99C1858.39 699.821 1857.66 702.598 1856.56 705.246C1854.96 709.128 1852.6 712.656 1849.63 715.627C1846.66 718.599 1843.13 720.956 1839.25 722.564C1836.6 723.661 1833.82 724.395 1830.99 724.75C1828.8 725.026 1827 723.209 1827 721C1827 718.791 1828.8 717.034 1830.98 716.667C1832.76 716.368 1834.51 715.867 1836.18 715.173C1839.1 713.967 1841.74 712.199 1843.97 709.97C1846.2 707.742 1847.97 705.096 1849.17 702.184C1849.87 700.508 1850.37 698.762 1850.67 696.981C1851.03 694.803 1852.79 693 1855 693ZM1636 353L1690.87 448.04C1696.67 457.667 1700 468.944 1700 481C1700 516.346 1671.35 545 1636 545C1600.65 545 1572 516.346 1572 481C1572 468.944 1575.33 457.667 1581.13 448.039L1636 353ZM1682.75 504.99C1683.03 502.798 1681.21 501 1679 501C1676.79 501 1675.03 502.803 1674.67 504.981C1674.37 506.762 1673.87 508.508 1673.17 510.184C1671.97 513.096 1670.2 515.742 1667.97 517.97C1665.74 520.199 1663.1 521.967 1660.18 523.173C1658.51 523.867 1656.76 524.368 1654.98 524.667C1652.8 525.034 1651 526.791 1651 529C1651 531.209 1652.8 533.026 1654.99 532.75C1657.82 532.395 1660.6 531.661 1663.25 530.564C1667.13 528.956 1670.66 526.599 1673.63 523.627C1676.6 520.656 1678.96 517.128 1680.56 513.246C1681.66 510.598 1682.39 507.821 1682.75 504.99ZM2038.87 448.04L1984 353L1929.13 448.039C1923.33 457.667 1920 468.944 1920 481C1920 516.346 1948.65 545 1984 545C2019.35 545 2048 516.346 2048 481C2048 468.944 2044.67 457.667 2038.87 448.04ZM2027 501C2029.21 501 2031.03 502.798 2030.75 504.99C2030.39 507.821 2029.66 510.598 2028.56 513.246C2026.96 517.128 2024.6 520.656 2021.63 523.627C2018.66 526.599 2015.13 528.956 2011.25 530.564C2008.6 531.661 2005.82 532.395 2002.99 532.75C2000.8 533.026 1999 531.209 1999 529C1999 526.791 2000.8 525.034 2002.98 524.667C2004.76 524.368 2006.51 523.867 2008.18 523.173C2011.1 521.967 2013.74 520.199 2015.97 517.97C2018.2 515.742 2019.97 513.096 2021.17 510.184C2021.87 508.508 2022.37 506.762 2022.67 504.981C2023.03 502.803 2024.79 501 2027 501ZM1812 161L1866.87 256.04C1872.67 265.667 1876 276.944 1876 289C1876 324.346 1847.35 353 1812 353C1776.65 353 1748 324.346 1748 289C1748 276.944 1751.33 265.667 1757.13 256.039L1812 161ZM1858.75 312.99C1859.03 310.798 1857.21 309 1855 309C1852.79 309 1851.03 310.803 1850.67 312.981C1850.37 314.762 1849.87 316.508 1849.17 318.184C1847.97 321.096 1846.2 323.742 1843.97 325.97C1841.74 328.199 1839.1 329.967 1836.18 331.173C1834.51 331.867 1832.76 332.368 1830.98 332.667C1828.8 333.034 1827 334.791 1827 337C1827 339.209 1828.8 341.026 1830.99 340.75C1833.82 340.395 1836.6 339.661 1839.25 338.564C1843.13 336.956 1846.66 334.599 1849.63 331.627C1852.6 328.656 1854.96 325.128 1856.56 321.246C1857.66 318.598 1858.39 315.821 1858.75 312.99ZM1866.87 1388.04L1812 1293L1757.13 1388.04C1751.33 1397.67 1748 1408.94 1748 1421C1748 1456.35 1776.65 1485 1812 1485C1847.35 1485 1876 1456.35 1876 1421C1876 1408.94 1872.67 1397.67 1866.87 1388.04ZM1855 1441C1857.21 1441 1859.03 1442.8 1858.75 1444.99C1858.39 1447.82 1857.66 1450.6 1856.56 1453.25C1854.96 1457.13 1852.6 1460.66 1849.63 1463.63C1846.66 1466.6 1843.13 1468.96 1839.25 1470.56C1836.6 1471.66 1833.82 1472.39 1830.99 1472.75C1828.8 1473.03 1827 1471.21 1827 1469C1827 1466.79 1828.8 1465.03 1830.98 1464.67C1832.76 1464.37 1834.51 1463.87 1836.18 1463.17C1839.1 1461.97 1841.74 1460.2 1843.97 1457.97C1846.2 1455.74 1847.97 1453.1 1849.17 1450.18C1849.87 1448.51 1850.37 1446.76 1850.67 1444.98C1851.03 1442.8 1852.79 1441 1855 1441ZM1984 1389L2038.87 1484.04C2044.67 1493.67 2048 1504.94 2048 1517C2048 1552.35 2019.35 1581 1984 1581C1948.65 1581 1920 1552.35 1920 1517C1920 1504.94 1923.33 1493.67 1929.13 1484.04L1984 1389ZM2030.75 1540.99C2031.03 1538.8 2029.21 1537 2027 1537C2024.79 1537 2023.03 1538.8 2022.67 1540.98C2022.37 1542.76 2021.87 1544.51 2021.17 1546.18C2019.97 1549.1 2018.2 1551.74 2015.97 1553.97C2013.74 1556.2 2011.1 1557.97 2008.18 1559.17C2006.51 1559.87 2004.76 1560.37 2002.98 1560.67C2000.8 1561.03 1999 1562.79 1999 1565C1999 1567.21 2000.8 1569.03 2002.99 1568.75C2005.82 1568.39 2008.6 1567.66 2011.25 1566.56C2015.13 1564.96 2018.66 1562.6 2021.63 1559.63C2024.6 1556.66 2026.96 1553.13 2028.56 1549.25C2029.66 1546.6 2030.39 1543.82 2030.75 1540.99ZM1690.87 1484.04L1636 1389L1581.13 1484.04C1575.33 1493.67 1572 1504.94 1572 1517C1572 1552.35 1600.65 1581 1636 1581C1671.35 1581 1700 1552.35 1700 1517C1700 1504.94 1696.67 1493.67 1690.87 1484.04ZM1679 1537C1681.21 1537 1683.03 1538.8 1682.75 1540.99C1682.39 1543.82 1681.66 1546.6 1680.56 1549.25C1678.96 1553.13 1676.6 1556.66 1673.63 1559.63C1670.66 1562.6 1667.13 1564.96 1663.25 1566.56C1660.6 1567.66 1657.82 1568.39 1654.99 1568.75C1652.8 1569.03 1651 1567.21 1651 1565C1651 1562.79 1652.8 1561.03 1654.98 1560.67C1656.76 1560.37 1658.51 1559.87 1660.18 1559.17C1663.1 1557.97 1665.74 1556.2 1667.97 1553.97C1670.2 1551.74 1671.97 1549.1 1673.17 1546.18C1673.87 1544.51 1674.37 1542.76 1674.67 1540.98C1675.03 1538.8 1676.79 1537 1679 1537ZM1984 0L2038.87 95.0396C2044.67 104.667 2048 115.944 2048 128C2048 163.346 2019.35 192 1984 192C1948.65 192 1920 163.346 1920 128C1920 115.944 1923.33 104.667 1929.13 95.0393L1984 0ZM2030.75 151.99C2031.03 149.798 2029.21 148 2027 148C2024.79 148 2023.03 149.803 2022.67 151.981C2022.37 153.762 2021.87 155.508 2021.17 157.184C2019.97 160.096 2018.2 162.742 2015.97 164.97C2013.74 167.199 2011.1 168.967 2008.18 170.173C2006.51 170.867 2004.76 171.368 2002.98 171.667C2000.8 172.034 1999 173.791 1999 176C1999 178.209 2000.8 180.026 2002.99 179.75C2005.82 179.395 2008.6 178.661 2011.25 177.564C2015.13 175.956 2018.66 173.599 2021.63 170.627C2024.6 167.656 2026.96 164.128 2028.56 160.246C2029.66 157.598 2030.39 154.821 2030.75 151.99ZM1690.87 95.0396L1636 0L1581.13 95.0393C1575.33 104.667 1572 115.944 1572 128C1572 163.346 1600.65 192 1636 192C1671.35 192 1700 163.346 1700 128C1700 115.944 1696.67 104.667 1690.87 95.0396ZM1679 148C1681.21 148 1683.03 149.798 1682.75 151.99C1682.39 154.821 1681.66 157.598 1680.56 160.246C1678.96 164.128 1676.6 167.656 1673.63 170.627C1670.66 173.599 1667.13 175.956 1663.25 177.564C1660.6 178.661 1657.82 179.395 1654.99 179.75C1652.8 180.026 1651 178.209 1651 176C1651 173.791 1652.8 172.034 1654.98 171.667C1656.76 171.368 1658.51 170.867 1660.18 170.173C1663.1 168.967 1665.74 167.199 1667.97 164.97C1670.2 162.742 1671.97 160.096 1673.17 157.184C1673.87 155.508 1674.37 153.762 1674.67 151.981C1675.03 149.803 1676.79 148 1679 148ZM936 0L990.871 95.0396C996.667 104.667 1000 115.944 1000 128C1000 163.346 971.346 192 936 192C900.654 192 872 163.346 872 128C872 115.944 875.333 104.667 881.129 95.0393L936 0ZM982.75 151.99C983.026 149.798 981.209 148 979 148C976.791 148 975.034 149.803 974.667 151.981C974.368 153.762 973.867 155.508 973.173 157.184C971.967 160.096 970.199 162.742 967.971 164.97C965.742 167.199 963.096 168.967 960.184 170.173C958.508 170.867 956.762 171.368 954.982 171.667C952.803 172.034 951 173.791 951 176C951 178.209 952.798 180.026 954.99 179.75C957.821 179.395 960.598 178.661 963.246 177.564C967.128 175.956 970.656 173.599 973.627 170.627C976.599 167.656 978.956 164.128 980.564 160.246C981.661 157.598 982.395 154.821 982.75 151.99ZM642.871 95.0396L588 0L533.129 95.0393C527.333 104.667 524 115.944 524 128C524 163.346 552.654 192 588 192C623.346 192 652 163.346 652 128C652 115.944 648.667 104.667 642.871 95.0396ZM631 148C633.209 148 635.026 149.798 634.75 151.99C634.395 154.821 633.661 157.598 632.564 160.246C630.956 164.128 628.599 167.656 625.627 170.627C622.656 173.599 619.128 175.956 615.246 177.564C612.598 178.661 609.821 179.395 606.99 179.75C604.798 180.026 603 178.209 603 176C603 173.791 604.803 172.034 606.982 171.667C608.762 171.368 610.508 170.867 612.184 170.173C615.096 168.967 617.742 167.199 619.971 164.97C622.199 162.742 623.967 160.096 625.173 157.184C625.867 155.508 626.368 153.762 626.667 151.981C627.034 149.803 628.791 148 631 148ZM2146 940L2200.87 1035.04C2206.67 1044.67 2210 1055.94 2210 1068C2210 1103.35 2181.35 1132 2146 1132C2110.65 1132 2082 1103.35 2082 1068C2082 1055.94 2085.33 1044.67 2091.13 1035.04L2146 940ZM2192.75 1091.99C2193.03 1089.8 2191.21 1088 2189 1088C2186.79 1088 2185.03 1089.8 2184.67 1091.98C2184.37 1093.76 2183.87 1095.51 2183.17 1097.18C2181.97 1100.1 2180.2 1102.74 2177.97 1104.97C2175.74 1107.2 2173.1 1108.97 2170.18 1110.17C2168.51 1110.87 2166.76 1111.37 2164.98 1111.67C2162.8 1112.03 2161 1113.79 2161 1116C2161 1118.21 2162.8 1120.03 2164.99 1119.75C2167.82 1119.39 2170.6 1118.66 2173.25 1117.56C2177.13 1115.96 2180.66 1113.6 2183.63 1110.63C2186.6 1107.66 2188.96 1104.13 2190.56 1100.25C2191.66 1097.6 2192.39 1094.82 2192.75 1091.99ZM2200.87 671.04L2146 576L2091.13 671.039C2085.33 680.667 2082 691.944 2082 704C2082 739.346 2110.65 768 2146 768C2181.35 768 2210 739.346 2210 704C2210 691.944 2206.67 680.667 2200.87 671.04ZM2189 724C2191.21 724 2193.03 725.798 2192.75 727.99C2192.39 730.821 2191.66 733.598 2190.56 736.246C2188.96 740.128 2186.6 743.656 2183.63 746.627C2180.66 749.599 2177.13 751.956 2173.25 753.564C2170.6 754.661 2167.82 755.395 2164.99 755.75C2162.8 756.026 2161 754.209 2161 752C2161 749.791 2162.8 748.034 2164.98 747.667C2166.76 747.368 2168.51 746.867 2170.18 746.173C2173.1 744.967 2175.74 743.199 2177.97 740.97C2180.2 738.742 2181.97 736.096 2183.17 733.184C2183.87 731.508 2184.37 729.762 2184.67 727.981C2185.03 725.803 2186.79 724 2189 724ZM2146 192L2200.87 287.04C2206.67 296.667 2210 307.944 2210 320C2210 355.346 2181.35 384 2146 384C2110.65 384 2082 355.346 2082 320C2082 307.944 2085.33 296.667 2091.13 287.039L2146 192ZM2192.75 343.99C2193.03 341.798 2191.21 340 2189 340C2186.79 340 2185.03 341.803 2184.67 343.981C2184.37 345.762 2183.87 347.508 2183.17 349.184C2181.97 352.096 2180.2 354.742 2177.97 356.97C2175.74 359.199 2173.1 360.967 2170.18 362.173C2168.51 362.867 2166.76 363.368 2164.98 363.667C2162.8 364.034 2161 365.791 2161 368C2161 370.209 2162.8 372.026 2164.99 371.75C2167.82 371.395 2170.6 370.661 2173.25 369.564C2177.13 367.956 2180.66 365.599 2183.63 362.627C2186.6 359.656 2188.96 356.128 2190.56 352.246C2191.66 349.598 2192.39 346.821 2192.75 343.99ZM2200.87 1323.04L2146 1228L2091.13 1323.04C2085.33 1332.67 2082 1343.94 2082 1356C2082 1391.35 2110.65 1420 2146 1420C2181.35 1420 2210 1391.35 2210 1356C2210 1343.94 2206.67 1332.67 2200.87 1323.04ZM2189 1376C2191.21 1376 2193.03 1377.8 2192.75 1379.99C2192.39 1382.82 2191.66 1385.6 2190.56 1388.25C2188.96 1392.13 2186.6 1395.66 2183.63 1398.63C2180.66 1401.6 2177.13 1403.96 2173.25 1405.56C2170.6 1406.66 2167.82 1407.39 2164.99 1407.75C2162.8 1408.03 2161 1406.21 2161 1404C2161 1401.79 2162.8 1400.03 2164.98 1399.67C2166.76 1399.37 2168.51 1398.87 2170.18 1398.17C2173.1 1396.97 2175.74 1395.2 2177.97 1392.97C2180.2 1390.74 2181.97 1388.1 2183.17 1385.18C2183.87 1383.51 2184.37 1381.76 2184.67 1379.98C2185.03 1377.8 2186.79 1376 2189 1376Z" fill="#46A2BD"/>
</svg>
